<svg id="Layer_1" data-name="Layer 1" xmlns="http://www.w3.org/2000/svg" viewBox="0 0 427.77 267.91"><defs><style>.cls-1{fill:#a2869a;}.cls-2{fill:#745a6f;}.cls-3{fill:#afaaae;}.cls-4{fill:#6c6c6c;}</style></defs><title>axelera_logo</title><path class="cls-1" d="M452.9,381.68h2.79v11.78H453l-.15-1.72a4.47,4.47,0,0,1-3.82,2.07c-3.49,0-6.07-2.12-6.07-6.26s2.7-6.18,6.14-6.16a4.32,4.32,0,0,1,3.75,1.91Zm-7.07,5.87a3.37,3.37,0,0,0,3.48,3.59c4.59,0,4.59-7.15,0-7.15a3.35,3.35,0,0,0-3.48,3.56" transform="translate(-259.13 -130.46)"/><polygon class="cls-1" points="215.08 251.21 215.08 252.6 209.66 260.13 215.13 260.13 215.13 262.99 205.21 262.99 205.21 261.77 210.85 253.86 205.64 253.86 205.64 251.21 215.08 251.21"/><path class="cls-1" d="M504.46,398.38v-6.31c-.84,1.29-2.68,1.67-3.92,1.67-3.78,0-6-2.72-6-6.16a5.89,5.89,0,0,1,6-6.17,4.71,4.71,0,0,1,3.83,1.89l.19-1.62h2.72v16.7Zm-.27-10.8a3.35,3.35,0,1,0-6.69,0,3.35,3.35,0,0,0,6.69,0" transform="translate(-259.13 -130.46)"/><path class="cls-1" d="M519.84,381.68v6.16c0,1.79,1,3.16,2.85,3.16a3.1,3.1,0,0,0,3-3.3v-6h2.89v11.8H526l-.19-1.6a5.27,5.27,0,0,1-4,1.77c-2.82,0-4.87-2.13-4.87-5.78v-6.19Z" transform="translate(-259.13 -130.46)"/><path class="cls-1" d="M540.82,388.61c.19,1.45,1.46,2.5,3.51,2.5a4.83,4.83,0,0,0,3.16-1.1l1.86,1.85a7.23,7.23,0,0,1-5.07,1.91c-4.06,0-6.47-2.51-6.47-6.29a5.89,5.89,0,0,1,6.26-6.16c3.94,0,6.4,2.43,5.95,7.29Zm6.4-2.42c-.19-1.53-1.38-2.29-3.06-2.29a3.17,3.17,0,0,0-3.29,2.29Z" transform="translate(-259.13 -130.46)"/><path class="cls-1" d="M579.12,384.81a4,4,0,0,0-2.92-1.06c-1.38,0-2.15.43-2.15,1.17s.7,1.2,2.2,1.3c2.22.14,5,.64,5,3.77,0,2.08-1.7,3.87-5.07,3.87a6.89,6.89,0,0,1-5.44-2.1l1.43-2.08a6.47,6.47,0,0,0,4.06,1.65c1.1,0,2.13-.55,2.13-1.41s-.67-1.15-2.34-1.24c-2.22-.17-4.88-1-4.88-3.66s2.82-3.68,5-3.68a6.35,6.35,0,0,1,4.59,1.55Z" transform="translate(-259.13 -130.46)"/><path class="cls-1" d="M593.31,381.68v6.16c0,1.79,1,3.16,2.84,3.16a3.1,3.1,0,0,0,3-3.3v-6h2.89v11.8h-2.6l-.19-1.6a5.27,5.27,0,0,1-4,1.77c-2.82,0-4.88-2.13-4.88-5.78v-6.19Z" transform="translate(-259.13 -130.46)"/><path class="cls-1" d="M621.91,392a6.05,6.05,0,0,1-4.54,1.86c-3.42,0-6.26-2.05-6.26-6.23s2.84-6.24,6.26-6.24a5.58,5.58,0,0,1,4.25,1.75L619.78,385a3.57,3.57,0,0,0-2.36-.93,3.32,3.32,0,0,0-3.4,3.49,3.21,3.21,0,0,0,3.35,3.44,3.54,3.54,0,0,0,2.58-1Z" transform="translate(-259.13 -130.46)"/><path class="cls-1" d="M633.33,388.61c.19,1.45,1.45,2.5,3.51,2.5A4.82,4.82,0,0,0,640,390l1.87,1.85a7.26,7.26,0,0,1-5.07,1.91c-4.06,0-6.47-2.51-6.47-6.29a5.89,5.89,0,0,1,6.26-6.16c3.94,0,6.4,2.43,5.95,7.29Zm6.4-2.42c-.19-1.53-1.39-2.29-3.06-2.29a3.17,3.17,0,0,0-3.3,2.29Z" transform="translate(-259.13 -130.46)"/><path class="cls-1" d="M664.17,376.75v16.71h-2.72l-.2-1.63a4.27,4.27,0,0,1-3.79,1.89,5.78,5.78,0,0,1-6.07-6.17c0-4.06,2.55-6.16,6-6.16a4.86,4.86,0,0,1,3.87,1.89v-6.53Zm-9.87,10.8a3.38,3.38,0,1,0,6.76,0,3.36,3.36,0,0,0-3.41-3.44,3.25,3.25,0,0,0-3.35,3.44" transform="translate(-259.13 -130.46)"/><path class="cls-1" d="M683.21,381.68H686v11.78h-2.75l-.14-1.72a4.48,4.48,0,0,1-3.83,2.07c-3.49,0-6.07-2.12-6.07-6.26s2.7-6.18,6.14-6.16a4.34,4.34,0,0,1,3.76,1.91Zm-7.07,5.87a3.38,3.38,0,0,0,3.49,3.59c4.59,0,4.59-7.15,0-7.15a3.36,3.36,0,0,0-3.49,3.56" transform="translate(-259.13 -130.46)"/><path class="cls-2" d="M628.2,278.62a12.38,12.38,0,0,0-3.54-9.64l-57.84-57.85L528.26,249.7l15.43,15.42q3.85,3.86,0,7.71l-5.79,5.79.39.38H628.2c0-.13,0-.25,0-.38" transform="translate(-259.13 -130.46)"/><path class="cls-3" d="M441.5,259.34l-48.2-48.21-58,58a13.2,13.2,0,0,0-3.7,9.8V279h90.23Z" transform="translate(-259.13 -130.46)"/><path class="cls-1" d="M485.84,215q3.86-3.86,7.72,0L509,230.42l38.56-38.57L489.7,134a14.93,14.93,0,0,0-19.28,0l-57.84,57.84,48.2,48.21Z" transform="translate(-259.13 -130.46)"/><path class="cls-4" d="M280.08,312.35H290l20.95,49.23H299.7l-4.47-11H274.56l-4.47,11h-11Zm11.31,28.77-6.5-15.85-6.49,15.85Z" transform="translate(-259.13 -130.46)"/><polygon class="cls-4" points="85.26 206.25 68.92 182.24 81.49 182.24 91.75 198.09 102.09 182.24 114.31 182.24 97.97 206.12 115.01 231.11 102.44 231.11 91.48 214.35 80.44 231.11 68.22 231.11 85.26 206.25"/><polygon class="cls-4" points="137.01 182.24 173.87 182.24 173.87 191.8 147.69 191.8 147.69 201.72 170.73 201.72 170.73 211.28 147.69 211.28 147.69 221.55 174.22 221.55 174.22 231.11 137.01 231.11 137.01 182.24"/><polygon class="cls-4" points="197.76 182.24 208.51 182.24 208.51 221.34 232.88 221.34 232.88 231.11 197.76 231.11 197.76 182.24"/><polygon class="cls-4" points="254.95 182.24 291.81 182.24 291.81 191.8 265.63 191.8 265.63 201.72 288.67 201.72 288.67 211.28 265.63 211.28 265.63 221.55 292.16 221.55 292.16 231.11 254.95 231.11 254.95 182.24"/><path class="cls-4" d="M574.83,312.7h22.34c6.22,0,11,1.75,14.25,5a15.34,15.34,0,0,1,4.19,11.17V329c0,7.89-4.26,12.85-10.48,15.15l11.94,17.46H604.5L594,345.94h-8.45v15.64H574.83Zm21.64,23.74c5.24,0,8.24-2.79,8.24-6.91v-.14c0-4.61-3.21-7-8.45-7H585.58v14Z" transform="translate(-259.13 -130.46)"/><path class="cls-4" d="M656,312.35H666l20.95,49.23H675.66l-4.47-11H650.52l-4.47,11h-11Zm11.31,28.77-6.49-15.85-6.5,15.85Z" transform="translate(-259.13 -130.46)"/><polygon class="cls-1" points="171.38 263.02 171.38 256.25 163.16 256.25 163.16 263.02 160.01 263.02 160.01 246.29 163.16 246.29 163.16 253.34 171.38 253.34 171.38 246.29 174.51 246.29 174.51 263.02 171.38 263.02"/></svg>